<svg width="25" height="27" viewBox="0 0 25 27" fill="none" xmlns="http://www.w3.org/2000/svg">
<g filter="url(#filter0_i_28507_42)">
<path d="M22.5 2.4545H21.25V0H18.75V2.4545H6.25V0H3.75V2.4545H2.5C1.125 2.4545 0 3.5591 0 4.9091V24.5455C0 25.8955 1.125 27 2.5 27H22.5C23.875 27 25 25.8955 25 24.5455V4.9091C25 3.5591 23.875 2.4545 22.5 2.4545ZM22.5 24.5455H2.5V8.5909H22.5V24.5455Z" fill="url(#paint0_linear_28507_42)"/>
<path d="M7.14286 11.8571H5V9.99996H7.14286V11.8571Z" fill="white"/>
<path d="M11.4286 11.8571H9.28577V9.99996H11.4286V11.8571Z" fill="white"/>
<path d="M15.7143 11.8571H13.5714V9.99996H15.7143V11.8571Z" fill="white"/>
<path d="M20 11.8571H17.8572V9.99996H20V11.8571Z" fill="white"/>
<path d="M7.14286 15.5714H5V13.7143H7.14286V15.5714Z" fill="white"/>
<path d="M11.4286 15.5714H9.28577V13.7143H11.4286V15.5714Z" fill="white"/>
<path d="M15.7143 15.5714H13.5714V13.7143H15.7143V15.5714Z" fill="white"/>
<path d="M20 15.5714H17.8572V13.7143H20V15.5714Z" fill="white"/>
<path d="M7.14286 19.2857H5V17.4286H7.14286V19.2857Z" fill="white"/>
<path d="M11.4286 19.2857H9.28577V17.4286H11.4286V19.2857Z" fill="white"/>
<path d="M15.7143 19.2857H13.5714V17.4286H15.7143V19.2857Z" fill="white"/>
<path d="M20 19.2857H17.8572V17.4286H20V19.2857Z" fill="white"/>
<path d="M7.14286 23H5V21.1429H7.14286V23Z" fill="white"/>
<path d="M11.4286 23H9.28577V21.1429H11.4286V23Z" fill="white"/>
<path d="M15.7143 23H13.5714V21.1429H15.7143V23Z" fill="white"/>
<path d="M20 23H17.8572V21.1429H20V23Z" fill="white"/>
</g>
<defs>
<filter id="filter0_i_28507_42" x="0" y="0" width="25" height="28" filterUnits="userSpaceOnUse" color-interpolation-filters="sRGB">
<feFlood flood-opacity="0" result="BackgroundImageFix"/>
<feBlend mode="normal" in="SourceGraphic" in2="BackgroundImageFix" result="shape"/>
<feColorMatrix in="SourceAlpha" type="matrix" values="0 0 0 0 0 0 0 0 0 0 0 0 0 0 0 0 0 0 127 0" result="hardAlpha"/>
<feOffset dy="1"/>
<feGaussianBlur stdDeviation="17"/>
<feComposite in2="hardAlpha" operator="arithmetic" k2="-1" k3="1"/>
<feColorMatrix type="matrix" values="0 0 0 0 1 0 0 0 0 1 0 0 0 0 1 0 0 0 0.5 0"/>
<feBlend mode="normal" in2="shape" result="effect1_innerShadow_28507_42"/>
</filter>
<linearGradient id="paint0_linear_28507_42" x1="0" y1="0" x2="25" y2="27" gradientUnits="userSpaceOnUse">
<stop stop-color="#E9FF60" stop-opacity="0.5"/>
<stop offset="0.182292" stop-color="#FFC56F" stop-opacity="0.55"/>
<stop offset="0.333333" stop-color="#E9FF60" stop-opacity="0.56"/>
<stop offset="0.505208" stop-color="#00FF38" stop-opacity="0.36"/>
<stop offset="0.604167" stop-color="#00FFF0" stop-opacity="0.35"/>
<stop offset="0.776042" stop-color="#E9FF60" stop-opacity="0.18"/>
<stop offset="0.927083" stop-color="#E9FF60" stop-opacity="0.27"/>
</linearGradient>
</defs>
</svg>
